<svg version="1.2" xmlns="http://www.w3.org/2000/svg" viewBox="0 0 1588 1588" width="1588" height="1588">
	<title>Buy 01-ai</title>
	<defs>
		<linearGradient id="g1" x1="1039.6" y1="888.4" x2="1039.6" y2="950.1" gradientUnits="userSpaceOnUse">
			<stop offset="0" stop-color="#2190ca"/>
			<stop offset="1" stop-color="#115ea2"/>
		</linearGradient>
		<linearGradient id="g2" x1="1039.6" y1="888.4" x2="1039.6" y2="950.1" gradientUnits="userSpaceOnUse">
			<stop offset="0" stop-color="#2190ca"/>
			<stop offset="1" stop-color="#115ea2"/>
		</linearGradient>
	</defs>
	<style>
		.s0 { fill: #14110c } 
		.s1 { fill: #fffdf6 } 
		.s2 { fill: #5c5467 } 
		.s3 { fill: #a7d4e3 } 
		.s4 { fill: #e8e8e2 } 
		.s5 { fill: #fefaf6 } 
		.s6 { fill: #d94f28 } 
		.s7 { fill: #ffffff } 
		.s8 { fill: #4faa13 } 
		.s9 { fill: #fb7e71 } 
		.s10 { fill: #545d66 } 
		.s11 { fill: #ffcf44 } 
		.s12 { fill: #6abec5 } 
		.s13 { fill: #ecbb5a } 
		.s14 { fill: #bf8c3a } 
		.s15 { fill: #009251 } 
		.s16 { fill: #00b062 } 
		.s17 { fill: #f6f6f6 } 
		.s18 { fill: #00ffff } 
		.s19 { fill: #f2f2f2 } 
		.s20 { fill: #cccccc } 
		.s21 { fill: #0074ca } 
		.s22 { fill: #f7dd5d } 
		.s23 { fill: #f2b22f } 
		.s24 { fill: #f4c571 } 
		.s25 { fill: #a81b4d } 
		.s26 { fill: #ff9d33 } 
		.s27 { fill: #030000 } 
		.s28 { fill: url(#g1) } 
		.s29 { fill: url(#g2) } 
		.s30 { fill: #231815 } 
	</style>
	<g id="Layer 1">
		<g id="&lt;Group&gt;">
			<g id="&lt;Group&gt;">
				<g id="&lt;Group&gt;">
					<path id="&lt;Path&gt;" class="s0" d="m1090.8 1226.5v25.5h-383.2v-25.5c0-10.6 8.6-19.2 19.2-19.2h64.6v-119.3h215.6v119.3h64.6c10.6 0 19.2 8.6 19.2 19.2z"/>
					<path id="&lt;Path&gt;" class="s0" d="m693.8 465.5l-6-151.8 272.6-10.8 1.3 33.2h0.1l1.1 30.1 3.5 88.5z"/>
					<path id="&lt;Compound Path&gt;" fill-rule="evenodd" class="s0" d="m1507.4 335.5v66.2c-7.7 1-13.7 2.5-13.7 2.5-20.1 7.8-63.4 15.2-87.1 17.5q0.5 4.5 0.8 9.2h20.6l4.2 168.1 3.9 16h-60.4v410.6h-825.8q0.5 1.7 0.8 3.4h825v32.9c0 13.5-10.9 24.4-24.4 24.4h-707.8c8.4 10.5 12.8 23.6 11.4 39.4-1.1 11.4-5 24.2-12.6 38.5q2.9 3.7 5.2 7.9c4.9 9.3 7.6 20.4 8.5 32.5 1.8 22.5-2.5 48.5-9.2 72.2-4.2 14.7-9.3 28.5-14.5 40 19.9 4 35.1 20.9 36.6 41.7q0-0.1 0.1-0.1v0.8q0 1.3 0 2.6v73.1q0 1.3 0 2.6v1c0 0-0.1 0-0.1 0-1.8 23.7-21.6 42.4-45.8 42.4-24.1 0-43.9-18.7-45.7-42.4q0 0 0 0v-0.1q-0.2-1.7-0.2-3.5v-73.1c0-25.3 20.6-45.9 45.9-45.9q3.1 0 6.1 0.4c5.6-12.2 11.1-27.2 15.5-43.1 6.2-22.6 10-47.1 8.4-68.4-1-11.7-3.5-22.4-8.3-31.3q-1.8-3.4-4-6.4-2.7 5-6 10.2c-9.1 14.4-18.4 24.8-27.4 31.8-11.8 9.3-23.3 13-33.3 12.7-13-0.4-23.7-7.4-29.9-17-6.2-9.7-7.9-22-3.1-32.9 4.4-10 14.2-18.9 31-23.5 5.2-1.4 11-2.4 17.5-2.9 14.5-1.1 26.1 0.8 35.4 5.1 6.1 2.8 11.1 6.6 15.3 11.2 6.9-13.6 10.6-25.6 11.6-36.3 1.4-16-3.3-28.9-12.2-39.2h-99.5c-13.8 21.5-37.8 35.7-65.2 35.7-42.7 0-77.3-34.6-77.3-77.3 0-23.4 10.4-44.3 26.9-58.5v-23.8h-242.6c-28.7 0-52-16.2-52-36.2v-2.9c0-20 23.3-36.2 52-36.2h37.5c26 0 47.1-14.1 47.1-31.3v-265.2c0-18.6 20-33.9 45.8-36l-0.8-5.9 43.8-5.7c-0.3-3.3-0.4-6.6-0.4-9.9 0-18.1 3.7-35.2 10.4-50.8l-8.4-27.1 4.6-1.4 6.8 22c21.1-42.4 64.8-71.5 115.4-71.5 57 0 105.4 37.1 122.3 88.5h567.2l60.8-109.8 18.3 9.5c22.9-38.3 58.8-60.4 87.3-54.8q4.3-0.6 9.3-1.3c44.2-6.2 45.7-14.4 45.7-14.4 0 0-13.5-6.2-21.4-17.8-7.9-11.6-2.1-29.3 6-23 8.1 6.4 18.8 19.6 50.6 24 31.8 4.3 50.2 20.9 58.9 23.7 2.1 0.7 7.9 1 15.5 1q1.6 2.8 3.1 5.6zm-868.6 829.1c-4-4.7-9-8.5-15-11.3-8.9-4.1-20-5.9-33.9-4.8-6.1 0.5-11.4 1.4-16.2 2.6-16.3 4.2-25.8 12.6-29.9 22-4.4 10-2.8 21.2 2.9 30.1 5.7 8.8 15.5 15.3 27.5 15.6 9.5 0.3 20.4-3.2 31.7-12.2 8.6-6.9 17.5-16.9 26.4-30.8q3.6-5.8 6.5-11.2zm670.6-800.2q-1.4 1.8-2.8 3.7c18.8-3.4 42.2-6.2 53.4-7.5q1.3-0.2 2.4-0.3 0 0 0 0-1.1 0.1-2.4 0.3c-11.8 1.3-35.6 3.9-43.3 4.2-2.7 0.1-5.1 0-7.3-0.4zm-14.5 25.3q-1.4 3.6-2.6 7.4c14.2-3.8 72.4-14 72.4-14-6.7-0.8-50.2 4.7-69.8 6.6zm76.5 14.3q0-0.8 0.1-1.6c-13.4 1.5-59.7 10.9-74.1 13.2q-0.1 0-0.2 0l29.6 15.3h3.3c-12.2-2-17.4-10.3 2.3-16.6 14.4-4.6 31.3-8.3 39-10.3zm-5.2 26.9q0.7-2.3 1.4-4.7c-9.1 1.9-18.4 3.9-25.9 4.7zm-107.7-35.2l23.9 12.3c1.3-6.2 3-12.1 5.1-17.7-12.8 0.4-12.3-7-9.1-14 0.9-2.1 8.6-4.4 19.2-6.5q2.5-4 5.3-7.5c-2.7-1.7-4.2-4.4-4.3-8.3q0-0.3 0.1-0.6c-14.7 9-29 23.6-40.2 42.3zm-834 561.8v-310c-11.1-5.8-21.2-13.1-30.2-21.8l-0.7 15.6-4.8-0.2 1-20c-15.3-16.3-26.4-36.6-31.6-59.2l-44.1 5.8-1.1-8.2c-23.3 1.8-41.5 15.1-41.5 31.1v265.2c0 20-23.3 36.2-52 36.2h-37.5c-25.9 0-47 14.1-47 31.3v2.9c0 17.2 21.1 31.3 47 31.3zm975.1-535.3c-2.2 0.2-4.1 0.2-5.6 0.2-5.1-0.1-11.8 1-19.1 2.3q-0.7 3.1-1.6 6.2h27q-0.2-4.4-0.7-8.7z"/>
				</g>
				<g id="&lt;Group&gt;">
					<g id="&lt;Group&gt;">
						<g id="&lt;Group&gt;">
							<g id="&lt;Group&gt;">
								<g id="&lt;Group&gt;">
									<g id="&lt;Group&gt;">
										<path id="&lt;Compound Path&gt;" class="s1" d="m1362.5 1021.5v32.9c0 13.5-11 24.4-24.4 24.4h-902.4c-13.4 0-24.4-10.9-24.4-24.4v-32.9z"/>
									</g>
								</g>
								<g id="&lt;Group&gt;">
									<g id="&lt;Group&gt;">
										<path id="&lt;Compound Path&gt;" class="s2" d="m411.3 509.7c0-13.4 11-24.4 24.4-24.4h902.4c13.4 0 24.4 11 24.4 24.4v508.4h-951.2z"/>
									</g>
								</g>
							</g>
							<g id="&lt;Group&gt;">
								<g id="&lt;Group&gt;">
									<path id="&lt;Path&gt;" class="s3" d="m1319.2 977.9h-864.7v-452.3h864.7z"/>
								</g>
							</g>
							<g id="&lt;Group&gt;">
								<g id="&lt;Group&gt;">
									<path id="&lt;Path&gt;" class="s4" d="m993.8 1199.8h-215.7v-119.3h215.7z"/>
								</g>
							</g>
							<g id="&lt;Group&gt;">
								<g id="&lt;Group&gt;">
									<path id="&lt;Compound Path&gt;" class="s5" d="m694.3 1219c0-10.6 8.7-19.2 19.2-19.2h344.9c10.5 0 19.2 8.6 19.2 19.2v25.5h-383.3z"/>
								</g>
							</g>
							<path id="&lt;Path&gt;" class="s4" d="m454.5 977.9l864.7-452.3v452.3z"/>
						</g>
						<g id="&lt;Group&gt;">
							<g id="&lt;Group&gt;">
								<path id="&lt;Path&gt;" class="s6" d="m963.4 811.7h-201.3c-4.2 0-7.7-3.4-7.7-7.7 0-4.2 3.5-7.6 7.7-7.6h201.3c8.7 0 16.6-5.5 19.7-13.5l59.7-159.1c1.1-3 4-5 7.2-5h61.9c4.2 0 7.6 3.5 7.6 7.7 0 4.2-3.4 7.7-7.6 7.7h-56.6l-57.8 154.1c-5.4 14.1-19.1 23.4-34.1 23.4z"/>
							</g>
							<g id="&lt;Group&gt;">
								<path id="&lt;Path&gt;" class="s7" d="m994.1 675.4h-279.2c-3.1 0-5.6-2.5-5.6-5.6 0-3 2.5-5.5 5.6-5.5h279.2c3.1 0 5.5 2.5 5.5 5.5 0 3.1-2.4 5.6-5.5 5.6z"/>
							</g>
							<g id="&lt;Group&gt;">
								<path id="&lt;Path&gt;" class="s7" d="m947.5 782.4q-0.9 0-1.9-0.4c-2.9-1-4.4-4.2-3.3-7.1l18.5-50.9 18.6-51c1.1-2.9 4.2-4.4 7.1-3.3 2.9 1 4.4 4.2 3.4 7.1l-18.6 51-18.6 50.9c-0.8 2.3-2.9 3.7-5.2 3.7z"/>
								<path id="&lt;Path&gt;" class="s7" d="m920.7 669.7c2.9 0.5 4.8 3.3 4.3 6.2l-9.3 50.9-9.3 51c-0.4 2.2-2.2 3.9-4.3 4.2q-0.9 0.2-1.9 0-0.9-0.2-1.7-0.6c-1.9-1.1-2.9-3.3-2.5-5.5l9.2-51 9.3-50.9c0.6-2.9 3.3-4.8 6.2-4.3z"/>
								<path id="&lt;Path&gt;" class="s7" d="m854.9 669.7c2.9 0 5.2 2.3 5.2 5.2v51 50.9c0 2.3-1.4 4.2-3.4 4.9q-0.9 0.3-1.8 0.3-1 0-1.8-0.3c-2-0.7-3.4-2.6-3.4-4.9v-50.9-51c0-2.9 2.3-5.2 5.2-5.2z"/>
								<path id="&lt;Path&gt;" class="s7" d="m789 669.7c2.9-0.5 5.7 1.4 6.2 4.3l9.3 50.9 9.3 51c0.4 2.2-0.7 4.4-2.5 5.5q-0.8 0.4-1.8 0.6-0.9 0.2-1.8 0c-2.2-0.3-4-2-4.4-4.2l-9.2-51-9.3-50.9c-0.6-2.9 1.4-5.7 4.2-6.2z"/>
								<path id="&lt;Path&gt;" class="s7" d="m762.2 782.4c-2.2 0-4.4-1.4-5.2-3.7l-18.5-50.9-18.6-51c-1.1-2.9 0.4-6.1 3.3-7.1 2.9-1.1 6.1 0.4 7.1 3.3l18.6 51 18.6 50.9c1 2.9-0.5 6.1-3.4 7.1q-0.9 0.4-1.9 0.4z"/>
							</g>
							<g id="&lt;Group&gt;">
								<path id="&lt;Path&gt;" class="s7" d="m972.8 711.7h-235.9c-3 0-5.5-2.5-5.5-5.5 0-3.1 2.5-5.6 5.5-5.6h235.9c3.1 0 5.6 2.5 5.6 5.6 0 3-2.5 5.5-5.6 5.5z"/>
							</g>
							<g id="&lt;Group&gt;">
								<path id="&lt;Path&gt;" class="s7" d="m957.4 755.3h-205c-3.1 0-5.6-2.5-5.6-5.5 0-3.1 2.5-5.6 5.6-5.6h205c3 0 5.5 2.5 5.5 5.6 0 3-2.5 5.5-5.5 5.5z"/>
							</g>
							<g id="&lt;Group&gt;">
								<g id="&lt;Group&gt;">
									<path id="&lt;Compound Path&gt;" fill-rule="evenodd" class="s6" d="m813.6 869.9c-14.9 0-27-12.1-27-26.9 0-14.9 12.1-27 27-27 14.9 0 27 12.1 27 27 0 14.8-12.1 26.9-27 26.9zm0-44.7c-9.8 0-17.8 8-17.8 17.8 0 9.7 8 17.7 17.8 17.7 9.8 0 17.8-8 17.8-17.7 0-9.8-8-17.8-17.8-17.8z"/>
								</g>
								<g id="&lt;Group&gt;">
									<path id="&lt;Path&gt;" class="s8" d="m824 843c0 5.7-4.6 10.4-10.4 10.4-5.8 0-10.4-4.7-10.4-10.4 0-5.8 4.6-10.5 10.4-10.5 5.8 0 10.4 4.7 10.4 10.5z"/>
								</g>
							</g>
							<g id="&lt;Group&gt;">
								<g id="&lt;Group&gt;">
									<path id="&lt;Compound Path&gt;" fill-rule="evenodd" class="s6" d="m920.8 869.9c-14.8 0-26.9-12.1-26.9-26.9 0-14.9 12.1-27 26.9-27 14.9 0 27 12.1 27 27 0 14.8-12.1 26.9-27 26.9zm0-44.7c-9.8 0-17.7 8-17.7 17.8 0 9.7 7.9 17.7 17.7 17.7 9.8 0 17.8-8 17.8-17.7 0-9.8-8-17.8-17.8-17.8z"/>
								</g>
								<g id="&lt;Group&gt;">
									<path id="&lt;Path&gt;" class="s8" d="m931.3 843c0 5.7-4.7 10.4-10.5 10.4-5.7 0-10.4-4.7-10.4-10.4 0-5.8 4.7-10.5 10.4-10.5 5.8 0 10.5 4.7 10.5 10.5z"/>
								</g>
							</g>
						</g>
						<g id="&lt;Group&gt;">
							<g id="&lt;Group&gt;">
								<path id="&lt;Path&gt;" class="s9" d="m953.2 447.2l-272.6 10.8-6.1-151.8 272.7-10.8z"/>
								<path id="&lt;Path&gt;" class="s10" d="m949.7 358.7l-272.7 10.8-1.1-30.1 272.6-10.8z"/>
								<path id="&lt;Path&gt;" class="s11" d="m890.3 428.7c-11.4 0.5-21-8.4-21.5-19.8-0.4-11.5 8.5-21.1 19.9-21.5 11.4-0.5 21 8.4 21.5 19.8 0.5 11.4-8.4 21.1-19.9 21.5z"/>
								<path id="&lt;Path&gt;" class="s12" d="m915.4 427.7c-11.5 0.5-21.1-8.4-21.5-19.8-0.5-11.5 8.4-21.1 19.8-21.5 11.4-0.5 21.1 8.4 21.5 19.8 0.5 11.5-8.4 21.1-19.8 21.5z"/>
								<path id="&lt;Path&gt;" class="s7" d="m805.8 398.4l-117.3 4.6-0.2-6 117.3-4.6z"/>
								<path id="&lt;Path&gt;" class="s7" d="m768.1 418.5l-78.9 3.2-0.2-6 78.9-3.1z"/>
								<path id="&lt;Path&gt;" class="s7" d="m768.8 436.8l-78.8 3.1-0.3-6 78.9-3.1z"/>
							</g>
						</g>
						<g id="&lt;Group&gt;">
							<g id="&lt;Group&gt;">
								<path id="&lt;Path&gt;" class="s13" d="m599.3 525.6c0 71.1-57.7 128.8-128.8 128.8-71.1 0-128.8-57.7-128.8-128.8 0-71.2 57.7-128.8 128.8-128.8 71.1 0 128.8 57.6 128.8 128.8z"/>
							</g>
							<g id="&lt;Group&gt;">
								<path id="&lt;Path&gt;" class="s14" d="m594.4 560.8c-15.3 54-65 93.6-123.9 93.6q-2.8 0-5.5-0.1l-67.9-107.8 91.9-36.6 51.3-10.6z"/>
							</g>
							<g id="&lt;Group&gt;">
								<g id="&lt;Group&gt;">
									<path id="&lt;Path&gt;" class="s15" d="m527.8 557.1h-114.6c-9.7 0-17.6-7.9-17.6-17.6v-27.8c0-9.8 7.9-17.6 17.6-17.6h114.6c9.7 0 17.6 7.8 17.6 17.6v27.8c0 9.7-7.9 17.6-17.6 17.6z"/>
								</g>
								<g id="&lt;Group&gt;">
									<path id="&lt;Path&gt;" class="s16" d="m528.3 555.1h-115.6c-8.6 0-15.6-7-15.6-15.6v-27.8c0-8.7 7-15.7 15.6-15.7h115.6c8.7 0 15.7 7 15.7 15.7v27.8c0 8.6-7 15.6-15.7 15.6z"/>
								</g>
								<g id="&lt;Group&gt;">
									<path id="&lt;Compound Path&gt;" fill-rule="evenodd" class="s7" d="m450 502.7l4 4v15.9l-4 3.9 4 4v16.9l-4 3.9h-20.7v-48.6zm-5 20l0.9-1v-10.3l-0.9-0.9h-7.4v12.2zm0 7.8h-7.4v12.9h7.4l0.9-1v-11z"/>
									<path id="&lt;Compound Path&gt;" class="s7" d="m483.5 547.4l-4 3.9h-16.3l-4-3.9v-44.7h8.1v39.9l0.9 0.9h6.3l0.9-0.9v-39.9h8.1z"/>
									<path id="&lt;Compound Path&gt;" class="s7" d="m506.3 551.3h-8.1v-16.9l-11.1-31.7h8.8l6.3 20.4 6.4-20.4h8.8l-11.1 31.7z"/>
								</g>
								<g id="&lt;Group&gt;" style="opacity: .1">
									<path id="&lt;Path&gt;" class="s7" d="m400.6 521.3q-0.9-2.2-1.4-4.7c1.4-7.9 6.6-13.8 12.8-13.8h117.1c6.1 0 11.3 5.9 12.7 13.8q-0.5 2.5-1.4 4.7c-2.2-5.5-6.5-9.2-11.3-9.2h-117.1c-4.9 0-9.2 3.7-11.4 9.2z"/>
								</g>
							</g>
						</g>
						<g id="&lt;Group&gt;">
							<g id="&lt;Group&gt;">
								<path id="&lt;Path&gt;" class="s17" d="m116.8 918.7v-2.9c0-20 23.3-36.2 52-36.2h37.5c25.9 0 47-14.1 47-31.3v-265.2c0-20 23.3-36.3 52-36.3v5c-25.9 0-47 14-47 31.3v265.2c0 20-23.4 36.2-52 36.2h-37.5c-26 0-47.1 14.1-47.1 31.3v2.9c0 17.2 21.1 31.3 47.1 31.3h242.5v4.9h-242.5c-28.7 0-52-16.2-52-36.2z"/>
							</g>
							<g id="&lt;Group&gt;">
								<g id="&lt;Group&gt;" style="mix-blend-mode: color-dodge">
									<path id="&lt;Path&gt;" class="s18" d="m359.4 498.4l-15.6-50.7 4.5-1.4 15.3 49.5q-2.2 1.2-4.2 2.6z"/>
								</g>
								<g id="&lt;Group&gt;" style="mix-blend-mode: color-dodge">
									<path id="&lt;Path&gt;" class="s18" d="m402.2 494.4l22.6-35 4 2.6-22.4 34.6q-2-1.2-4.2-2.2z"/>
								</g>
								<g id="&lt;Group&gt;" style="mix-blend-mode: color-dodge">
									<path id="&lt;Path&gt;" class="s18" d="m414.4 564.9l36.8 34.1-3.3 3.5-37.1-34.4q1.9-1.5 3.6-3.2z"/>
								</g>
								<g id="&lt;Group&gt;" style="mix-blend-mode: color-dodge">
									<path id="&lt;Path&gt;" class="s18" d="m383.1 577.3l-2.8 56.5-4.8-0.2 2.9-56.7q2.3 0.4 4.7 0.4z"/>
								</g>
								<g id="&lt;Group&gt;">
									<path id="&lt;Path&gt;" class="s7" d="m347.6 507.3l61.4 29.1-51.8 43.9-3.5-27-52.8 6.9-2.5-19 52.8-6.9z"/>
								</g>
							</g>
						</g>
						<g id="&lt;Group&gt;">
							<path id="&lt;Compound Path&gt;" fill-rule="evenodd" class="s7" d="m575.9 1048.6c19.7 5 36.9 12.8 48.8 24.1 12 11.5 18.6 26.4 16.9 45.5-1 11.4-5 24.2-12.5 38.5q2.9 3.7 5.1 7.9c5 9.3 7.6 20.4 8.6 32.5 1.7 22.5-2.6 48.5-9.3 72.2-4.3 15.3-9.7 29.5-15.1 41.3l-5.5 13.2-0.7-5.8 3.5-8.7c5.7-12.3 11.3-27.4 15.7-43.6 6.2-22.6 10.1-47.1 8.4-68.4-0.9-11.7-3.5-22.4-8.2-31.3q-1.8-3.4-4-6.4-2.8 5-6.1 10.2c-9.1 14.5-18.3 24.8-27.3 31.8l-1.5-2.5c8.6-6.9 17.5-16.9 26.3-30.8q3.6-5.8 6.6-11.2c-4.1-4.7-9-8.5-15.1-11.3-8.8-4.1-20-5.9-33.9-4.8-6 0.5-11.4 1.4-16.2 2.6l-1.5-2.7c5.1-1.4 11-2.4 17.5-2.9 14.4-1.1 26.1 0.8 35.4 5.1 6 2.8 11.1 6.6 15.2 11.2 7-13.6 10.7-25.6 11.6-36.3 1.7-18.1-4.5-32.3-15.9-43.1-11.5-11-28.3-18.6-47.5-23.4-22.1-5.5-47.5-7.3-72-6.4-14.7 0.6-29.1 2.2-42.3 4.6l-0.5-2.9c12.9-2.3 26.8-3.9 41.1-4.6 25.3-1.1 51.6 0.7 74.4 6.4zm-14.9 162.7c-12-0.3-21.8-6.8-27.5-15.6-5.7-8.9-7.3-20.1-2.9-30.1 4.1-9.4 13.5-17.8 29.8-22l-1.5-2.7c-16.8 4.6-26.7 13.5-31.1 23.5-4.8 10.9-3 23.2 3.2 32.9 6.2 9.6 16.8 16.6 29.9 17 10 0.3 21.4-3.4 33.3-12.7l-1.5-2.5c-11.4 9-22.2 12.5-31.7 12.2z"/>
							<g id="&lt;Group&gt;">
								<path id="&lt;Path&gt;" class="s19" d="m655.8 1427.4c0 25.4-20.6 46-45.9 46-25.4 0-45.9-20.6-45.9-46v-73.1c0-25.3 20.5-45.9 45.9-45.9 25.3 0 45.9 20.6 45.9 45.9z"/>
								<path id="&lt;Path&gt;" class="s20" d="m564.1 1350.9c0 0 37.2 33.8 0 80.1z"/>
								<path id="&lt;Path&gt;" class="s20" d="m655.7 1431c0 0-37.2-33.8 0-80.1z"/>
								<path id="&lt;Path&gt;" class="s20" d="m619.9 1349.5c0 5.6-4.5 10.1-10 10.1-5.6 0-10.1-4.5-10.1-10.1v-16c0-5.6 4.5-10.1 10.1-10.1 5.5 0 10 4.5 10 10.1z"/>
							</g>
						</g>
						<g id="&lt;Group&gt;">
							<g id="&lt;Group&gt;">
								<path id="&lt;Path&gt;" class="s21" d="m539.1 1037.2c0 42.7-34.6 77.3-77.3 77.3-42.7 0-77.3-34.6-77.3-77.3 0-42.6 34.6-77.3 77.3-77.3 42.7 0 77.3 34.7 77.3 77.3z"/>
							</g>
							<g id="&lt;Group&gt;">
								<g id="&lt;Group&gt;">
									<g id="&lt;Group&gt;">
										<g id="&lt;Group&gt;">
											<path id="&lt;Path&gt;" class="s22" d="m502.3 1037.2c0 22.4-18.2 40.5-40.5 40.5-22.4 0-40.5-18.1-40.5-40.5 0-22.3 18.1-40.5 40.5-40.5 22.3 0 40.5 18.2 40.5 40.5z"/>
										</g>
										<g id="&lt;Group&gt;">
											<path id="&lt;Compound Path&gt;" fill-rule="evenodd" class="s23" d="m461.8 1083.5c-25.5 0-46.3-20.8-46.3-46.3 0-25.5 20.8-46.2 46.3-46.2 25.5 0 46.2 20.7 46.2 46.2 0 25.5-20.7 46.3-46.2 46.3zm0-86.6c-22.3 0-40.4 18.1-40.4 40.3 0 22.3 18.1 40.4 40.4 40.4 22.2 0 40.3-18.1 40.3-40.4 0-22.2-18.1-40.3-40.3-40.3z"/>
										</g>
									</g>
									<g id="&lt;Group&gt;">
										<g id="&lt;Group&gt;">
											<path id="&lt;Compound Path&gt;" class="s23" d="m479.6 1061.5c-2.5 1.8-6.9 3.4-12.2 3.4-6.7 0-12.7-2.5-16.7-7.3-3.2-3.5-5.2-8.3-6-14.2h-5.1v-4.1h4.7q0-0.6 0-1.2c0-1.3 0.1-2.5 0.2-3.7h-4.9v-4.1h5.5c0.9-5.7 3.3-10.5 6.7-13.9 4.1-4.3 9.6-6.8 16.2-6.8 5 0 8.8 1.4 11.1 2.6l-1.7 5.4c-2.1-1.2-5.5-2.3-9.2-2.3-4.5 0-8.2 1.6-11 4.5-2.3 2.5-4 6.2-4.8 10.5h23v4.1h-23.8c-0.1 1.1-0.1 2.3-0.1 3.5 0 0.5 0 0.9 0 1.4h23.9v4.1h-23.3c0.6 4.8 2.2 8.3 4.5 10.8 3 3.3 7.1 4.8 11.6 4.8 4.4 0 8.1-1.6 10-2.7z"/>
										</g>
									</g>
								</g>
							</g>
						</g>
						<g id="&lt;Group&gt;">
							<path id="&lt;Path&gt;" class="s24" d="m1494.1 394.2c-7.7 1-13.7 2.5-13.7 2.5-24.5 9.5-84 18.4-99.6 18.2-15.6-0.2-46.9 9.9-61 8.9-14.2-1.1-21.9-10.2-0.6-17 21.3-6.8 48.2-11.6 42.2-12.1-6.1-0.4-61.3 10.9-77.2 13.4-16 2.5-16.5-14.8-7.1-18 9.4-3.1 74.4-14.5 74.4-14.5-7.6-0.9-61.6 6.2-75.9 7.2-14.3 0.9-13.8-6.8-10.5-14 2.8-6.1 61.5-13.4 81.7-15.7 4-0.5 6.7-0.8 6.7-0.8 0 0-2.6 0.3-6.7 0.8-11.8 1.3-35.6 3.9-43.4 4.2-10.4 0.3-17.9-2.2-18-10.8 0-8.6 6.1-11.4 50.3-17.6 44.2-6.2 45.7-14.4 45.7-14.4 0 0-13.5-6.2-21.4-17.8-7.8-11.6-2-29.3 6.1-23 8.1 6.4 18.8 19.6 50.6 24 31.8 4.3 50.2 20.9 58.9 23.7 2.1 0.7 7.8 1 15.4 1q1.6 2.8 3.1 5.6z"/>
							<g id="&lt;Group&gt;">
								<g id="&lt;Group&gt;">
									<path id="&lt;Path&gt;" class="s25" d="m1138.3 524.6l82.5-149.1 150.3 77.6-74.1 151.1-3.9 16-164.7-85z"/>
									<path id="&lt;Path&gt;" class="s25" d="m1234.6 392.9c25.4-48.6 71.7-75 103.1-58.8 31.5 16.3 36.5 69.1 11.1 117.8-0.8 1.5-2.8 2-4.5 1.1-1.7-0.9-2.5-2.8-1.7-4.3 23.8-45.7 20.3-94.6-7.7-109.1-28.1-14.5-70.3 10.9-94.1 56.5-0.7 1.5-2.8 2.1-4.5 1.2-1.7-0.9-2.4-2.8-1.7-4.4z"/>
								</g>
								<g id="&lt;Group&gt;">
									<path id="&lt;Path&gt;" class="s26" d="m1241.2 593.6l4.3-170.2h169.2l4.3 168.1 3.9 16h-185.6z"/>
									<path id="&lt;Path&gt;" class="s26" d="m1265.8 432.1c0-54.9 28.8-99.5 64.3-99.5 35.4 0 64.3 44.6 64.3 99.5 0 1.7-1.6 3-3.5 3-1.9 0-3.5-1.3-3.5-3 0-51.5-25.7-93.3-57.3-93.3-31.6 0-57.3 41.8-57.3 93.3 0 1.7-1.6 3-3.5 3-1.9 0-3.5-1.3-3.5-3z"/>
								</g>
							</g>
							<g id="&lt;Group&gt;">
								<g id="&lt;Group&gt;">
									<path id="&lt;Compound Path&gt;" fill-rule="evenodd" class="s7" d="m1287.9 527.7v-48.5h17.8q8.1 0 12.5 3 4.4 3 4.4 8.4 0 3.9-2.7 6.8-2.6 3-6.8 4.1v0.2q5.2 0.6 8.3 3.8 3.2 3.2 3.2 7.7 0 6.7-4.8 10.6-4.8 3.9-13.1 3.9zm11-40.4v11.5h4.8q3.4 0 5.3-1.7 2-1.6 2-4.5 0-5.3-8-5.3zm0 19.6v12.8h5.9q3.8 0 6-1.8 2.1-1.8 2.1-4.8 0-2.9-2.1-4.6-2.1-1.6-5.9-1.6z"/>
									<path id="&lt;Compound Path&gt;" class="s7" d="m1347.6 479.2v8.5h-4v31.6h4v8.4h-19.1v-8.4h4.1v-31.6h-4.1v-8.5z"/>
									<path id="&lt;Compound Path&gt;" class="s7" d="m1394.7 524.5q-7.2 4.1-17.8 4.1-11.7 0-18.5-6.5-6.8-6.5-6.8-17.9 0-11.4 7.4-18.6 7.4-7.2 19.7-7.2 7.8 0 13.7 2.1v10.3q-5.7-3.3-13.8-3.3-6.9 0-11.2 4.4-4.3 4.5-4.3 11.8 0 7.5 3.9 11.6 3.9 4.1 10.4 4.1 4 0 6.3-1.1v-9.5h-9.8v-8.7h20.8z"/>
								</g>
								<g id="&lt;Group&gt;">
									<path id="&lt;Compound Path&gt;" class="s7" d="m1284.7 570.3v-7.6q2.1 1.7 4.6 2.6 2.4 0.9 4.9 0.9 1.5 0 2.6-0.3 1.1-0.2 1.8-0.7 0.8-0.5 1.1-1.1 0.4-0.7 0.4-1.4 0-1-0.6-1.8-0.6-0.8-1.6-1.5-1-0.6-2.3-1.2-1.4-0.7-3-1.3-4-1.7-6-4.1-2-2.4-2-5.8 0-2.7 1.1-4.7 1-1.9 2.9-3.1 1.9-1.3 4.3-1.9 2.5-0.6 5.2-0.5 2.7 0 4.8 0.3 2.1 0.3 3.8 1v7.1q-0.8-0.6-1.8-1-1.1-0.5-2.2-0.8-1-0.3-2.1-0.4-1.1-0.2-2-0.2-1.4 0-2.5 0.3-1 0.2-1.8 0.7-0.7 0.4-1.1 1.1-0.4 0.6-0.4 1.4 0 0.9 0.4 1.5 0.5 0.7 1.3 1.3 0.9 0.6 2.1 1.2 1.2 0.6 2.7 1.2 2.1 0.9 3.7 1.9 1.6 0.9 2.8 2.2 1.2 1.2 1.8 2.8 0.7 1.5 0.7 3.6 0 2.9-1.1 4.8-1.1 2-3 3.2-1.9 1.2-4.4 1.7-2.5 0.6-5.2 0.6-2.9 0-5.4-0.5-2.6-0.5-4.5-1.5z"/>
									<path id="&lt;Compound Path&gt;" fill-rule="evenodd" class="s7" d="m1344.3 571.7h-8.5l-2.4-7.7h-12.3l-2.4 7.7h-8.5l12.6-34.4h9.2zm-12.7-13.5l-3.7-11.6q-0.4-1.3-0.6-3.1h-0.2q-0.1 1.5-0.6 3l-3.7 11.7z"/>
									<path id="&lt;Compound Path&gt;" class="s7" d="m1369.1 571.7h-20.5v-34.4h7.8v28.1h12.7z"/>
									<path id="&lt;Compound Path&gt;" class="s7" d="m1394.5 571.7h-20.7v-34.4h19.9v6.3h-12.1v7.7h11.2v6.2h-11.2v7.9h12.9z"/>
								</g>
							</g>
						</g>
					</g>
					<g id="&lt;Group&gt;">
						<g id="&lt;Group&gt;">
							<g id="&lt;Group&gt;" style="opacity: .7;mix-blend-mode: multiply">
								<path id="&lt;Path&gt;" class="s27" d="m1035.6 943.3c0 4.9-4 8.9-9 8.9h-315.6c-4.9 0-9-4-9-8.9v-43.8c0-5 4.1-9 9-9h315.6c5 0 9 4 9 9z"/>
							</g>
							<g id="&lt;Group&gt;">
								<path id="&lt;Path&gt;" class="s28" d="m1035.6 941.1c0 5-4 9-9 9h-315.6c-4.9 0-9-4-9-9v-43.8c0-4.9 4.1-8.9 9-8.9h315.6c5 0 9 4 9 8.9z"/>
							</g>
							<path id="&lt;Path&gt;" class="s29" d="m971.7 888.4h54.9c5 0 9 4 9 8.9v43.8c0 5-4 9-9 9h-54.9z"/>
							<path id="&lt;Path&gt;" class="s30" d="m973.8 950.1h-3.1v-61.7h3.1z"/>
						</g>
						<g id="&lt;Group&gt;">
							<path id="&lt;Compound Path&gt;" fill-rule="evenodd" class="s7" d="m988.9 923.2h29.4l-0.8 11.9c0 1.2-1 2.1-2.2 2.1h-23.5c-1.1 0-2.1-0.9-2.2-2.1zm22.4 10.5c0 0.6 0.4 1.1 0.8 1.1 0.4 0 0.8-0.5 0.8-1.1v-6.4c0-0.6-0.4-1-0.8-1-0.4 0-0.8 0.4-0.8 1zm-5.7 0c0 0.6 0.4 1.1 0.8 1.1 0.5 0 0.8-0.5 0.8-1.1v-6.4c0-0.6-0.3-1-0.8-1-0.4 0-0.8 0.4-0.8 1zm-5.6 0c0 0.6 0.3 1.1 0.8 1.1 0.4 0 0.8-0.5 0.8-1.1v-6.4c0-0.6-0.4-1-0.8-1-0.5 0-0.8 0.4-0.8 1zm-5.7 0c0 0.6 0.3 1.1 0.8 1.1 0.4 0 0.8-0.5 0.8-1.1v-6.4c0-0.6-0.4-1-0.8-1-0.5 0-0.8 0.4-0.8 1z"/>
							<path id="&lt;Path&gt;" class="s7" d="m1001.8 922.1h-14.2c-0.6 0-1-0.5-1-1.1v-4.2c0-0.6 0.4-1.1 1-1.1h11.9l-0.7 0.7c-0.4 0.4-0.6 0.9-0.6 1.5 0 0.6 0.2 1.1 0.6 1.5l2.3 2.3q0.3 0.3 0.7 0.4z"/>
							<path id="&lt;Path&gt;" class="s7" d="m1020.6 916.8v4.2c0 0.6-0.5 1.1-1.1 1.1h-16.1q0.4-0.1 0.7-0.4l5.9-6h9.5c0.6 0 1.1 0.5 1.1 1.1z"/>
							<path id="&lt;Compound Path&gt;" fill-rule="evenodd" class="s7" d="m999.6 917.1l13.5-13.4c0.4-0.4 1-0.4 1.5 0l2.2 2.2c0.4 0.4 0.4 1.1 0 1.5l-13.5 13.5c-0.4 0.4-1.1 0.4-1.5 0l-2.2-2.3c-0.4-0.4-0.4-1 0-1.5zm1.6 1c0 0.6 0.5 1.1 1.2 1.1 0.6 0 1.1-0.5 1.1-1.1 0-0.7-0.5-1.2-1.1-1.2-0.7 0-1.2 0.5-1.2 1.2z"/>
						</g>
						<g id="&lt;Group&gt;">
							<g id="&lt;Group&gt;">
								<path id="&lt;Compound Path&gt;" fill-rule="evenodd" class="s7" d="m774.7 905.6h5.2c3.9 0 6.7 2.5 6.7 6.3 0 2.6-1 3.6-1.8 4.6 2.2 1.1 3.3 3.3 3.3 5.8 0 3.9-2.7 6.4-6.7 6.4h-6.7zm2.7 9.8q0 0.2 0.2 0.2h2.3c3.2 0 3.9-2.4 3.9-3.7 0-1.3-0.7-3.6-3.9-3.6h-2.2q-0.3 0-0.3 0.3zm0 10.1q0 0.3 0.3 0.3h3.8c3.2 0 3.9-2.4 3.9-3.7 0-1.3-0.7-3.8-3.9-3.8h-3.9q-0.2 0.1-0.2 0.2z"/>
								<path id="&lt;Compound Path&gt;" class="s7" d="m804.8 928.7h-2.5v-1.2c-1.1 0.9-2.6 1.4-4.2 1.4-3.5 0-6.7-2.9-6.7-6.4v-9.2h2.6v8.9c0 2.2 1.9 4.1 4.1 4.1 2.1 0 4.1-0.9 4.1-4v-9h2.6z"/>
								<path id="&lt;Compound Path&gt;" class="s7" d="m812.2 935h-2.7l2.2-6.1 0.2-0.4-0.1-0.2-5.3-15h2.8l3.8 11.1 0.1 0.3 0.1-0.3 3.9-11.2h2.7z"/>
								<path id="&lt;Compound Path&gt;" class="s7" d="m831.9 928.7v-23h3.4l11.1 18.6q0.1 0.1 0.1 0.1 0.1 0 0.1-0.1v-18.7h2.7v23.1h-3.4l-11.1-18.6q-0.1-0.1-0.1-0.1-0.1 0-0.1 0.1v18.6z"/>
								<path id="&lt;Compound Path&gt;" fill-rule="evenodd" class="s7" d="m860.4 913.1c4.4 0 7.9 3.5 7.9 7.8 0 4.5-3.5 8-7.9 8-4.4 0-7.9-3.5-7.9-8 0-4.3 3.5-7.8 7.9-7.8zm0 13.2c3 0 5.3-2.4 5.3-5.4 0-2.9-2.3-5.2-5.3-5.2-3 0-5.3 2.3-5.3 5.2 0 3 2.3 5.4 5.3 5.4z"/>
								<path id="&lt;Compound Path&gt;" class="s7" d="m869.5 913.3h2.8l3.5 11v0.2l0.1-0.2 3.5-11h2l3.4 11 0.1 0.2 0.1-0.3 3.4-10.9h2.8l-5.2 15.4h-2.3l-3.3-10.5-2.2 6.5-1.3 4h-2.2z"/>
							</g>
						</g>
					</g>
				</g>
			</g>
		</g>
	</g>
</svg>