<?xml version="1.0" encoding="UTF-8" standalone="no" ?>
<!DOCTYPE svg PUBLIC "-//W3C//DTD SVG 1.1//EN" "http://www.w3.org/Graphics/SVG/1.1/DTD/svg11.dtd">
<svg xmlns="http://www.w3.org/2000/svg" xmlns:xlink="http://www.w3.org/1999/xlink" version="1.1" width="1080" height="1080" viewBox="0 0 1080 1080" xml:space="preserve">
<desc>Created with Fabric.js 5.2.4</desc>
<defs>
</defs>
<rect x="0" y="0" width="100%" height="100%" fill="transparent"></rect>
<g transform="matrix(1 0 0 1 540 540)" id="d80e546c-c4c5-44c5-86a4-39801436b45c"  >
</g>
<g transform="matrix(1 0 0 1 540 540)" id="6087daae-3a06-49a1-ad61-c79f9590803b"  >
<rect style="stroke: none; stroke-width: 1; stroke-dasharray: none; stroke-linecap: butt; stroke-dashoffset: 0; stroke-linejoin: miter; stroke-miterlimit: 4; fill: rgb(255,255,255); fill-rule: nonzero; opacity: 1; visibility: hidden;" vector-effect="non-scaling-stroke"  x="-540" y="-540" rx="0" ry="0" width="1080" height="1080" />
</g>
<g transform="matrix(10.2 0 0 10.2 540 540)"  >
<path style="stroke: rgb(0,0,0); stroke-width: 0; stroke-dasharray: none; stroke-linecap: butt; stroke-dashoffset: 0; stroke-linejoin: miter; stroke-miterlimit: 4; fill: rgb(131,66,127); fill-opacity: 0.53; fill-rule: nonzero; opacity: 1;" vector-effect="non-scaling-stroke"  transform=" translate(-50, -50)" d="M 50 92.875 C 26.358 92.875 7.125 73.642 7.125 50 C 7.125 26.358000000000004 26.358 7.125 50 7.125 C 73.642 7.125 92.875 26.358 92.875 50 C 92.875 73.642 73.642 92.875 50 92.875 z M 50 9.125 C 27.461 9.125 9.125 27.461 9.125 50 C 9.125 72.538 27.461 90.875 50 90.875 C 72.538 90.875 90.875 72.538 90.875 50 C 90.875 27.461 72.538 9.125 50 9.125 z" stroke-linecap="round" />
</g>
<g transform="matrix(0.13 0 0 -0.13 534.25 535.05)"  >
<path style="stroke: none; stroke-width: 1; stroke-dasharray: none; stroke-linecap: butt; stroke-dashoffset: 0; stroke-linejoin: miter; stroke-miterlimit: 4; fill: rgb(154,86,153); fill-rule: nonzero; opacity: 1;" vector-effect="non-scaling-stroke"  transform=" translate(-3612.02, -7756.96)" d="M 3450 10550 C 3139 10511 2878 10409 2640 10233 C 2552 10167 2371 9989 2313 9909 C 2122 9649 2016 9365 1989 9042 C 1977 8906 1978 8898 1996 8880 C 2012 8865 3202 7970 4687 6857 L 5090 6555 L 5090 6501 C 5090 6352 5023 6095 4940 5930 C 4824 5698 4646 5496 4434 5352 C 4347 5293 4190 5217 4085 5182 C 3667 5041 3197 5096 2832 5327 C 2450 5569 2204 5954 2145 6403 C 2137 6464 2130 6531 2130 6552 L 2130 6590 L 2061 6590 C 2022 6590 1989 6586 1986 6582 C 1983 6577 1985 6521 1990 6457 C 2032 5948 2298 5500 2725 5220 C 3138 4950 3654 4884 4130 5040 C 4753 5244 5208 5841 5237 6492 C 5241 6587 5240 6623 5230 6635 C 5221 6645 5221 6650 5229 6650 C 5237 6650 5240 6768 5238 7092 L 5235 7534 L 5055 7670 C 4506 8084 4076 8408 3935 8515 C 3847 8582 3584 8780 3350 8957 C 3116 9133 2837 9343 2730 9425 C 2623 9506 2496 9602 2448 9637 C 2399 9673 2360 9704 2360 9706 C 2360 9718 2444 9832 2504 9902 C 2884 10345 3511 10517 4075 10333 C 4556 10176 4926 9777 5049 9285 C 5075 9177 5090 9075 5090 8996 L 5090 8930 L 5167 8930 L 5243 8930 L 5237 9033 C 5216 9395 5066 9744 4810 10030 C 4618 10246 4327 10422 4040 10499 C 3857 10548 3610 10569 3450 10550 z M 2573 9357 C 2728 9240 2995 9039 3165 8910 C 3491 8665 3843 8398 4145 8170 C 4244 8095 4497 7904 4708 7746 L 5090 7458 L 5091 7129 C 5092 6948 5092 6791 5092 6780 C 5092 6769 5092 6756 5091 6750 C 5090 6738 5138 6703 3945 7600 C 3430 7988 2998 8312 2986 8320 C 2975 8328 2902 8382 2826 8440 C 2749 8498 2629 8588 2560 8640 C 2490 8692 2364 8786 2280 8849 L 2128 8964 L 2135 9034 C 2146 9157 2180 9309 2220 9420 C 2259 9530 2277 9570 2286 9570 C 2289 9570 2418 9474 2573 9357 z" stroke-linecap="round" />
</g>
<g transform="matrix(9.51 0 0 9.51 540 540)" id="576acff8-b77d-49c6-bb89-1c6afeb5de5f"  >
<path style="stroke: rgb(0,0,0); stroke-width: 0; stroke-dasharray: none; stroke-linecap: butt; stroke-dashoffset: 0; stroke-linejoin: miter; stroke-miterlimit: 4; fill: rgb(131,67,126); fill-opacity: 0.66; fill-rule: nonzero; opacity: 1;" vector-effect="non-scaling-stroke"  transform=" translate(-50, -50)" d="M 50 92.875 C 26.358 92.875 7.125 73.642 7.125 50 C 7.125 26.358000000000004 26.358 7.125 50 7.125 C 73.642 7.125 92.875 26.358 92.875 50 C 92.875 73.642 73.642 92.875 50 92.875 z M 50 9.125 C 27.461 9.125 9.125 27.461 9.125 50 C 9.125 72.538 27.461 90.875 50 90.875 C 72.538 90.875 90.875 72.538 90.875 50 C 90.875 27.461 72.538 9.125 50 9.125 z" stroke-linecap="round" />
</g>
</svg>