<?xml version="1.0" encoding="UTF-8" standalone="no" ?>
<!DOCTYPE svg PUBLIC "-//W3C//DTD SVG 1.1//EN" "http://www.w3.org/Graphics/SVG/1.1/DTD/svg11.dtd">
<svg xmlns="http://www.w3.org/2000/svg" xmlns:xlink="http://www.w3.org/1999/xlink" version="1.1" width="800" height="174" viewBox="0 0 800 174" xml:space="preserve">
<desc>Created with Fabric.js 4.6.0</desc>
<defs>
</defs>
<g transform="matrix(2.65 0 0 2.65 400 103.5)" id="_ZN6WIlgLhoI3oeo6ZIKq"  >
<g style="" vector-effect="non-scaling-stroke"   >
		<g transform="matrix(0.02 0 0 -0.02 -50.65 -8.11)" id="xPvAZ8nqRSA3-EHZRp_A4"  >
<path style="stroke: none; stroke-width: 1; stroke-dasharray: none; stroke-linecap: butt; stroke-dashoffset: 0; stroke-linejoin: miter; stroke-miterlimit: 4; fill: rgb(0,0,0); fill-rule: nonzero; opacity: 1;" vector-effect="non-scaling-stroke"  transform=" translate(-4532.83, -1725.16)" d="M 3630 2753 C 3583 2751 3541 2745 3537 2741 C 3533 2737 3538 2630 3549 2504 C 3560 2378 3590 2025 3616 1720 C 3642 1415 3664 1163 3666 1161 C 3668 1159 3768 1163 3889 1171 L 4109 1184 L 4286 1542 C 4384 1739 4465 1898 4467 1897 C 4468 1895 4564 1624 4680 1295 C 4796 966 4892 694 4894 692 C 4898 689 5364 729 5385 735 C 5394 737 5532 2578 5530 2672 L 5530 2699 L 5413 2702 C 5348 2704 5292 2703 5288 2700 C 5285 2697 5248 2540 5206 2350 C 5142 2056 5013 1478 4995 1401 C 4992 1388 4987 1380 4984 1382 C 4980 1387 4867 1839 4755 2300 C 4723 2429 4694 2538 4691 2543 C 4684 2550 4280 2494 4271 2485 C 4270 2483 4210 2323 4139 2129 C 4068 1935 4007 1774 4005 1771 C 4002 1769 3999 1769 3997 1771 C 3995 1774 3896 2272 3844 2545 C 3827 2635 3808 2728 3804 2743 C 3800 2756 3789 2760 3757 2758 C 3734 2757 3677 2754 3630 2753 z" stroke-linecap="round" />
</g>
		<g transform="matrix(0.02 0 0 -0.02 131.13 -8.43)" id="nnGDpKhf5bPqlie5LfSGd"  >
<path style="stroke: none; stroke-width: 1; stroke-dasharray: none; stroke-linecap: butt; stroke-dashoffset: 0; stroke-linejoin: miter; stroke-miterlimit: 4; fill: rgb(5,81,131); fill-rule: nonzero; opacity: 1;" vector-effect="non-scaling-stroke"  transform=" translate(-12552.47, -1739.64)" d="M 12055 2744 C 11940 2738 11843 2731 11841 2731 C 11836 2730 11850 1196 11856 1191 C 11863 1184 12225 1163 12231 1169 C 12235 1172 12244 1255 12253 1353 C 12261 1451 12271 1534 12275 1538 C 12283 1546 12869 1565 12876 1557 C 12879 1555 12874 1366 12866 1139 C 12858 912 12853 724 12855 721 C 12857 719 12951 721 13062 726 L 13265 735 L 13263 795 C 13261 828 13249 1238 13235 1705 C 13221 2173 13207 2579 13204 2608 L 13199 2660 L 13070 2660 L 12942 2660 L 12936 2588 C 12932 2548 12923 2389 12915 2236 C 12906 2082 12897 1954 12895 1951 C 12889 1946 12352 1881 12307 1880 L 12278 1880 L 12284 1943 C 12287 1977 12292 2175 12296 2383 C 12302 2746 12302 2760 12284 2759 C 12273 2758 12171 2751 12055 2744 z" stroke-linecap="round" />
</g>
		<g transform="matrix(0.02 0 0 -0.02 -128.7 -7.05)" id="oPfiraedJ7kuezgQiU_qF"  >
<path style="stroke: none; stroke-width: 1; stroke-dasharray: none; stroke-linecap: butt; stroke-dashoffset: 0; stroke-linejoin: miter; stroke-miterlimit: 4; fill: rgb(0,0,0); fill-rule: nonzero; opacity: 1;" vector-effect="non-scaling-stroke"  transform=" translate(-1089.33, -1678.36)" d="M 1604 2685 C 1602 2680 1594 2603 1585 2515 C 1576 2427 1567 2337 1565 2315 C 1562 2293 1540 2073 1515 1825 C 1490 1578 1467 1361 1462 1344 C 1456 1315 1425 1367 1081 1997 L 706 2682 L 661 2677 C 636 2674 539 2666 445 2659 C 352 2652 271 2644 267 2640 C 260 2633 366 729 375 702 C 378 693 414 690 509 690 L 639 690 L 644 733 C 647 756 652 849 655 940 C 659 1031 663 1123 665 1145 C 667 1167 674 1298 680 1435 C 686 1573 693 1705 695 1730 C 697 1755 699 1791 699 1810 L 700 1845 L 728 1800 C 778 1721 814 1659 1160 1060 C 1282 848 1385 672 1388 668 C 1392 665 1511 678 1653 699 L 1912 735 L 1910 1700 C 1910 2231 1906 2668 1902 2671 C 1890 2683 1608 2696 1604 2685 z" stroke-linecap="round" />
</g>
		<g transform="matrix(0.02 0 0 -0.02 102.24 -7.19)" id="j9tfCdyRpvRM5nIo6VQ0D"  >
<path style="stroke: none; stroke-width: 1; stroke-dasharray: none; stroke-linecap: butt; stroke-dashoffset: 0; stroke-linejoin: miter; stroke-miterlimit: 4; fill: rgb(0,0,0); fill-rule: nonzero; opacity: 1;" vector-effect="non-scaling-stroke"  transform=" translate(-11277.68, -1684.9)" d="M 10745 2690 C 10504 2669 10332 2595 10203 2457 C 10044 2287 9977 2059 9976 1685 C 9975 1370 10019 1188 10141 1004 C 10202 913 10258 864 10362 812 C 10584 700 10839 668 11490 672 C 11919 674 12571 688 12579 696 C 12581 698 12575 769 12564 852 L 12545 1005 L 12465 1005 C 12421 1005 12264 998 12115 990 C 11956 982 11659 975 11395 975 C 10995 975 10937 977 10875 993 C 10673 1045 10569 1149 10515 1355 C 10493 1441 10482 1610 10491 1744 C 10511 2046 10603 2198 10815 2281 C 10868 2301 10892 2304 11020 2304 C 11148 2305 11172 2302 11222 2282 C 11298 2251 11359 2190 11384 2119 C 11394 2089 11404 2063 11406 2061 C 11408 2059 11472 2077 11549 2101 C 11708 2150 11703 2143 11669 2243 C 11569 2541 11403 2658 11037 2689 C 10898 2701 10880 2701 10745 2690 z" stroke-linecap="round" />
</g>
		<g transform="matrix(0.02 0 0 -0.02 -78.08 -6.56)" id="RIirlzmMTlmOmPf7JGPST"  >
<path style="stroke: none; stroke-width: 1; stroke-dasharray: none; stroke-linecap: butt; stroke-dashoffset: 0; stroke-linejoin: miter; stroke-miterlimit: 4; fill: rgb(5,81,131); fill-rule: nonzero; opacity: 1;" vector-effect="non-scaling-stroke"  transform=" translate(-3322.34, -1656.86)" d="M 2800 2657 C 2506 2652 2262 2645 2259 2642 C 2252 2634 2155 682 2161 675 C 2166 670 4431 648 4436 653 C 4446 662 4491 1053 4483 1060 C 4479 1064 4075 1049 3587 1028 C 3098 1006 2697 990 2695 992 C 2688 999 2642 1614 2648 1624 C 2651 1629 2764 1630 2922 1626 C 3176 1619 3190 1620 3190 1637 C 3190 1659 3133 1960 3128 1965 C 3126 1967 3008 1953 2866 1933 C 2677 1907 2606 1901 2600 1909 C 2597 1916 2588 1996 2581 2088 C 2574 2180 2566 2282 2563 2314 L 2557 2373 L 2736 2366 C 2834 2363 2960 2358 3015 2355 C 3345 2339 3380 2339 3380 2353 C 3380 2395 3348 2656 3342 2660 C 3338 2663 3094 2661 2800 2657 z" stroke-linecap="round" />
</g>
		<g transform="matrix(0.02 0 0 -0.02 52.67 -7.05)" id="bymLrO0mH1Sos2TlPpzai"  >
<path style="stroke: none; stroke-width: 1; stroke-dasharray: none; stroke-linecap: butt; stroke-dashoffset: 0; stroke-linejoin: miter; stroke-miterlimit: 4; fill: rgb(5,81,131); fill-rule: nonzero; opacity: 1;" vector-effect="non-scaling-stroke"  transform=" translate(-9090.83, -1678.45)" d="M 8780 2650 L 8505 2645 L 8502 2600 C 8493 2459 8410 803 8410 766 L 8410 722 L 8608 716 C 8716 713 9012 707 9266 704 L 9727 698 L 9749 891 C 9780 1161 9780 1135 9744 1134 C 9727 1133 9541 1111 9332 1084 C 9122 1058 8948 1038 8946 1041 C 8944 1043 8931 1175 8918 1334 C 8898 1577 8896 1623 8908 1628 C 8916 1631 9039 1630 9181 1626 L 9440 1619 L 9440 1640 C 9440 1672 9388 1954 9381 1962 C 9378 1965 9259 1953 9117 1933 C 8975 1914 8856 1900 8853 1903 C 8849 1908 8811 2310 8810 2359 C 8810 2370 8842 2372 9003 2366 C 9305 2356 9456 2350 9578 2344 C 9639 2341 9694 2341 9698 2344 C 9704 2347 9679 2637 9671 2658 C 9670 2661 9106 2656 8780 2650 z" stroke-linecap="round" />
</g>
		<g transform="matrix(0.02 0 0 -0.02 15.49 -6.96)" id="-o-JMS5HFKAJ96EH4eTV2"  >
<path style="stroke: none; stroke-width: 1; stroke-dasharray: none; stroke-linecap: butt; stroke-dashoffset: 0; stroke-linejoin: miter; stroke-miterlimit: 4; fill: rgb(0,0,0); fill-rule: nonzero; opacity: 1;" vector-effect="non-scaling-stroke"  transform=" translate(-7450.46, -1674.5)" d="M 7410 2622 C 7006 2608 6673 2595 6670 2593 C 6664 2587 6708 2277 6717 2269 C 6722 2265 6826 2251 6950 2238 L 7175 2215 L 7187 2015 C 7210 1626 7260 735 7260 718 C 7260 702 7273 700 7395 700 C 7528 700 7530 700 7530 723 C 7530 761 7648 2162 7652 2164 C 7654 2166 7766 2155 7902 2142 C 8038 2128 8153 2119 8157 2123 C 8165 2132 8238 2639 8231 2645 C 8229 2648 8208 2649 8186 2649 C 8163 2648 7814 2636 7410 2622 z" stroke-linecap="round" />
</g>
		<g transform="matrix(0.02 0 0 -0.02 0.51 30.92)" id="5kOT4dGtS8KBh0Ox86bWa"  >
<path style="stroke: none; stroke-width: 1; stroke-dasharray: none; stroke-linecap: butt; stroke-dashoffset: 0; stroke-linejoin: miter; stroke-miterlimit: 4; fill: rgb(0,0,0); fill-rule: nonzero; opacity: 1;" vector-effect="non-scaling-stroke"  transform=" translate(-6789.82, -3.25)" d="M 3392 3 C 5261 1 8319 1 10187 3 C 12056 4 10527 5 6790 5 C 3053 5 1524 4 3392 3 z" stroke-linecap="round" />
</g>
</g>
</g>
<g transform="matrix(0.02 0 0 -0.02 201.93 448.55)" id="JiUzCJrv-FvqH6853adlI"  >
<path style="stroke: none; stroke-width: 1; stroke-dasharray: none; stroke-linecap: butt; stroke-dashoffset: 0; stroke-linejoin: miter; stroke-miterlimit: 4; fill: rgb(0,0,0); fill-rule: nonzero; opacity: 1;" vector-effect="non-scaling-stroke"  transform=" translate(-6789.82, -3.25)" d="M 3392 3 C 5261 1 8319 1 10187 3 C 12056 4 10527 5 6790 5 C 3053 5 1524 4 3392 3 z" stroke-linecap="round" />
</g>
<g transform="matrix(0.91 0 0 0.91 142.67 -251.78)" id="yAO-vu4xux2EX7WcPqSBH"  >
<g style="" vector-effect="non-scaling-stroke"   >
		<g transform="matrix(0.04 0 0 -0.04 0 0)" id="lajrg0PUT8sxLFnKKS8rH"  >
<linearGradient id="SVGID_177" gradientUnits="userSpaceOnUse" gradientTransform="matrix(1 0 0 1 -2805 -2825)"  x1="0" y1="2825.0000000000005" x2="5610" y2="2825.0000000000005">
<stop offset="0%" style="stop-color:#000000;stop-opacity: 1"/>
<stop offset="50%" style="stop-color:#7E7E7E;stop-opacity: 1"/>
<stop offset="100%" style="stop-color:#055082;stop-opacity: 1"/>
</linearGradient>
<path style="stroke: none; stroke-width: 1; stroke-dasharray: none; stroke-linecap: butt; stroke-dashoffset: 0; stroke-linejoin: miter; stroke-miterlimit: 4; fill: url(#SVGID_177); fill-rule: nonzero; opacity: 1;" vector-effect="non-scaling-stroke"  transform=" translate(0, 0)" d="M -2805 0 L -2805 -1821.04999 L -2805 -1821.04999 C -2805 -2375.51627 -2355.51627 -2825 -1801.04999 -2825 L 0 -2825 L 1847.52151 -2825 L 1847.52151 -2825 C 2376.3222800000003 -2825 2805 -2396.32228 2805 -1867.52151 L 2805 0 L 2805 1797.89749 L 2805 1797.89749 C 2805 2365.15054 2345.15054 2825 1777.89749 2825 L 0 2825 L -1746.18311 2825 L -1746.18311 2825 C -2330.95153 2825 -2805 2350.95153 -2805 1766.18311 z M 300 2479 C 683 2432 1056 2296 1373 2088 C 1802 1806 2137 1398 2323 930 C 2449 613 2505 325 2505 -12 C 2505 -598 2307 -1153 1935 -1607 C 1859 -1699 1683 -1874 1588 -1951 C 1447 -2066 1286 -2169 1110 -2255 C 858 -2379 684 -2436 400 -2486 C 285 -2507 239 -2510 0 -2509 C -233 -2509 -288 -2506 -400 -2487 C -1177 -2353 -1817 -1904 -2194 -1230 C -2494 -691 -2585 -62 -2450 541 C -2364 921 -2179 1295 -1925 1600 C -1526 2080 -931 2403 -305 2480 C -168 2497 160 2497 300 2479 z" stroke-linecap="round" />
</g>
		<g transform="matrix(0.04 0 0 -0.04 0 0)" id="L49MNg979HAV_as1svJVK"  >
<linearGradient id="SVGID_47" gradientUnits="userSpaceOnUse" gradientTransform="matrix(1 0 0 1 412.78 433.5)"  x1="0" y1="2382.7470771568665" x2="4777.723849730859" y2="2382.7470771568665">
<stop offset="0%" style="stop-color:#055082;stop-opacity: 1"/>
<stop offset="50%" style="stop-color:#7E7E7E;stop-opacity: 1"/>
<stop offset="100%" style="stop-color:#000000;stop-opacity: 1"/>
</linearGradient>
<path style="stroke: none; stroke-width: 1; stroke-dasharray: none; stroke-linecap: butt; stroke-dashoffset: 0; stroke-linejoin: miter; stroke-miterlimit: 4; fill: url(#SVGID_47); fill-rule: nonzero; opacity: 1;" vector-effect="non-scaling-stroke"  transform=" translate(-2801.64, -2816.25)" d="M 2565 5193 C 2248 5154 1985 5078 1738 4954 C 1134 4651 692 4119 504 3467 C 266 2641 502 1738 1115 1125 C 1237 1002 1331 926 1476 829 C 1573 764 1787 649 1890 606 C 2045 542 2247 485 2438 453 C 2593 427 3030 427 3180 453 C 3690 543 4104 751 4464 1100 C 4793 1419 5036 1849 5135 2286 C 5209 2616 5209 3006 5135 3339 C 5004 3930 4637 4462 4124 4805 C 4003 4886 3751 5013 3614 5062 C 3466 5115 3244 5168 3095 5185 C 2978 5199 2648 5204 2565 5193 z M 3160 5015 C 3557 4948 3926 4778 4247 4514 C 4556 4259 4812 3870 4934 3467 C 5044 3106 5060 2704 4980 2335 C 4926 2088 4808 1807 4668 1595 C 4628 1534 4590 1478 4583 1470 C 4473 1331 4340 1192 4235 1106 C 4003 917 3771 789 3500 700 C 3261 622 3063 590 2803 590 C 2060 590 1378 950 958 1565 C 618 2063 496 2698 626 3290 C 773 3957 1216 4520 1824 4815 C 2064 4932 2259 4988 2585 5034 C 2657 5044 3069 5031 3160 5015 z" stroke-linecap="round" />
</g>
		<g transform="matrix(0.04 0 0 -0.04 -44.64 -1.64)" id="8YkrpkjYwpBg8Ti18CEbw"  >
<path style="stroke: none; stroke-width: 1; stroke-dasharray: none; stroke-linecap: butt; stroke-dashoffset: 0; stroke-linejoin: miter; stroke-miterlimit: 4; fill: rgb(0,0,0); fill-rule: nonzero; opacity: 1;" vector-effect="non-scaling-stroke"  transform=" translate(-1755.3, -2854.55)" d="M 2555 4774 C 2467 4763 2373 4746 2358 4738 C 2341 4730 2340 4658 2338 3497 L 2335 2265 L 2061 3235 C 1911 3769 1784 4215 1779 4228 C 1771 4250 1768 4250 1592 4250 L 1413 4250 L 1354 4187 C 1322 4152 1275 4098 1250 4066 C 1225 4034 1200 4003 1195 3997 C 1162 3959 1060 3789 1014 3694 C 870 3397 800 3031 828 2712 C 843 2548 876 2381 921 2245 C 964 2113 1094 1858 1175 1744 C 1241 1653 1395 1480 1483 1400 L 1531 1356 L 1652 1478 L 1774 1599 L 1663 1705 C 1342 2010 1170 2404 1169 2835 C 1168 3055 1199 3240 1264 3415 C 1303 3517 1404 3706 1465 3789 C 1517 3861 1519 3862 1530 3839 C 1536 3826 1625 3516 1729 3150 C 1832 2784 2013 2144 2131 1728 L 2345 971 L 2405 960 C 2495 944 2661 928 2676 934 C 2688 939 2690 1249 2688 2857 L 2685 4775 L 2635 4776 C 2608 4777 2572 4776 2555 4774 z" stroke-linecap="round" />
</g>
		<g transform="matrix(0.04 0 0 -0.04 41.57 -1.8)" id="DOWCvuXRP4xzfjAXmpvSG"  >
<path style="stroke: none; stroke-width: 1; stroke-dasharray: none; stroke-linecap: butt; stroke-dashoffset: 0; stroke-linejoin: miter; stroke-miterlimit: 4; fill: rgb(5,81,131); fill-rule: nonzero; opacity: 1;" vector-effect="non-scaling-stroke"  transform=" translate(-3776, -2858.48)" d="M 2910 4605 L 2910 4430 L 2948 4430 C 3036 4429 3224 4392 3358 4349 L 3420 4328 L 3420 2636 C 3420 1705 3423 941 3426 938 C 3434 929 3570 980 3675 1031 L 3765 1075 L 3768 2603 C 3769 3443 3773 4130 3777 4130 C 3787 4130 3850 4081 3929 4011 C 4017 3934 4125 3806 4195 3697 L 4245 3620 L 4443 3620 L 4642 3620 L 4586 3725 C 4424 4031 4207 4270 3915 4463 C 3740 4578 3468 4693 3270 4735 C 3179 4755 2999 4780 2948 4780 L 2910 4780 L 2910 4605 z" stroke-linecap="round" />
</g>
</g>
</g>
<g transform="matrix(1.02 0 0 1.02 405.57 -232.05)" id="RIBq6RFqPEDlAIF5YS1NA"  >
<g style="" vector-effect="non-scaling-stroke"   >
		<g transform="matrix(0.04 0 0 -0.04 0 0)" id="gDBZqG-H3IIwNBF1Tv21m"  >
<linearGradient id="SVGID_28" gradientUnits="userSpaceOnUse" gradientTransform="matrix(1 0 0 1 -2388.86 -2382.75)"  x1="0" y1="2382.747077156867" x2="4777.72384973086" y2="2382.747077156867">
<stop offset="0%" style="stop-color:#055183;stop-opacity: 1"/>
<stop offset="100%" style="stop-color:#000000;stop-opacity: 1"/>
</linearGradient>
<path style="stroke: none; stroke-width: 1; stroke-dasharray: none; stroke-linecap: butt; stroke-dashoffset: 0; stroke-linejoin: miter; stroke-miterlimit: 4; fill: url(#SVGID_28); fill-rule: nonzero; opacity: 1;" vector-effect="non-scaling-stroke"  transform=" translate(0, 0)" d="M -236.63808 2376.75292 C -553.63808 2337.75292 -816.63808 2261.75292 -1063.63808 2137.75292 C -1667.63808 1834.75292 -2109.6380799999997 1302.75292 -2297.6380799999997 650.7529199999999 C -2535.6380799999997 -175.2470800000001 -2299.6380799999997 -1078.24708 -1686.6380799999997 -1691.24708 C -1564.6380799999997 -1814.24708 -1470.6380799999997 -1890.24708 -1325.6380799999997 -1987.24708 C -1228.6380799999997 -2052.24708 -1014.6380799999997 -2167.24708 -911.6380799999997 -2210.24708 C -756.6380799999997 -2274.24708 -554.6380799999997 -2331.24708 -363.6380799999997 -2363.24708 C -208.63807999999972 -2389.24708 228.36192000000028 -2389.24708 378.3619200000003 -2363.24708 C 888.3619200000003 -2273.24708 1302.3619200000003 -2065.24708 1662.3619200000003 -1716.24708 C 1991.3619200000003 -1397.24708 2234.3619200000003 -967.2470800000001 2333.3619200000003 -530.2470800000001 C 2407.3619200000003 -200.2470800000001 2407.3619200000003 189.7529199999999 2333.3619200000003 522.7529199999999 C 2202.3619200000003 1113.75292 1835.3619200000003 1645.75292 1322.3619200000003 1988.75292 C 1201.3619200000003 2069.75292 949.3619200000003 2196.75292 812.3619200000003 2245.75292 C 664.3619200000003 2298.75292 442.3619200000003 2351.75292 293.3619200000003 2368.75292 C 176.36192000000028 2382.75292 -153.63807999999972 2387.75292 -236.63807999999972 2376.75292 z M 358.36192 2198.75292 C 755.36192 2131.75292 1124.36192 1961.75292 1445.36192 1697.75292 C 1754.36192 1442.75292 2010.36192 1053.75292 2132.3619200000003 650.7529199999999 C 2242.3619200000003 289.7529199999999 2258.3619200000003 -112.2470800000001 2178.3619200000003 -481.2470800000001 C 2124.3619200000003 -728.2470800000001 2006.3619200000003 -1009.2470800000001 1866.3619200000003 -1221.24708 C 1826.3619200000003 -1282.24708 1788.3619200000003 -1338.24708 1781.3619200000003 -1346.24708 C 1671.3619200000003 -1485.24708 1538.3619200000003 -1624.24708 1433.3619200000003 -1710.24708 C 1201.3619200000003 -1899.24708 969.3619200000003 -2027.24708 698.3619200000003 -2116.24708 C 459.3619200000003 -2194.24708 261.3619200000003 -2226.24708 1.361920000000282 -2226.24708 C -741.6380799999997 -2226.24708 -1423.6380799999997 -1866.24708 -1843.6380799999997 -1251.24708 C -2183.6380799999997 -753.2470800000001 -2305.6380799999997 -118.2470800000001 -2175.6380799999997 473.7529199999999 C -2028.6380799999997 1140.75292 -1585.6380799999997 1703.75292 -977.6380799999997 1998.75292 C -737.6380799999997 2115.75292 -542.6380799999997 2171.75292 -216.63807999999972 2217.75292 C -144.63807999999972 2227.75292 267.3619200000003 2214.75292 358.3619200000003 2198.75292 z" stroke-linecap="round" />
</g>
		<g transform="matrix(0.04 0 0 -0.04 -44.64 -1.64)" id="kS9h90nTKr1CKmFvXsql4"  >
<path style="stroke: none; stroke-width: 1; stroke-dasharray: none; stroke-linecap: butt; stroke-dashoffset: 0; stroke-linejoin: miter; stroke-miterlimit: 4; fill: rgb(0,0,0); fill-rule: nonzero; opacity: 1;" vector-effect="non-scaling-stroke"  transform=" translate(-1755.3, -2854.55)" d="M 2555 4774 C 2467 4763 2373 4746 2358 4738 C 2341 4730 2340 4658 2338 3497 L 2335 2265 L 2061 3235 C 1911 3769 1784 4215 1779 4228 C 1771 4250 1768 4250 1592 4250 L 1413 4250 L 1354 4187 C 1322 4152 1275 4098 1250 4066 C 1225 4034 1200 4003 1195 3997 C 1162 3959 1060 3789 1014 3694 C 870 3397 800 3031 828 2712 C 843 2548 876 2381 921 2245 C 964 2113 1094 1858 1175 1744 C 1241 1653 1395 1480 1483 1400 L 1531 1356 L 1652 1478 L 1774 1599 L 1663 1705 C 1342 2010 1170 2404 1169 2835 C 1168 3055 1199 3240 1264 3415 C 1303 3517 1404 3706 1465 3789 C 1517 3861 1519 3862 1530 3839 C 1536 3826 1625 3516 1729 3150 C 1832 2784 2013 2144 2131 1728 L 2345 971 L 2405 960 C 2495 944 2661 928 2676 934 C 2688 939 2690 1249 2688 2857 L 2685 4775 L 2635 4776 C 2608 4777 2572 4776 2555 4774 z" stroke-linecap="round" />
</g>
		<g transform="matrix(0.04 0 0 -0.04 41.57 -1.8)" id="-gGMuHIlsTvyo7SUGFyxT"  >
<path style="stroke: none; stroke-width: 1; stroke-dasharray: none; stroke-linecap: butt; stroke-dashoffset: 0; stroke-linejoin: miter; stroke-miterlimit: 4; fill: rgb(4,80,130); fill-rule: nonzero; opacity: 1;" vector-effect="non-scaling-stroke"  transform=" translate(-3776, -2858.48)" d="M 2910 4605 L 2910 4430 L 2948 4430 C 3036 4429 3224 4392 3358 4349 L 3420 4328 L 3420 2636 C 3420 1705 3423 941 3426 938 C 3434 929 3570 980 3675 1031 L 3765 1075 L 3768 2603 C 3769 3443 3773 4130 3777 4130 C 3787 4130 3850 4081 3929 4011 C 4017 3934 4125 3806 4195 3697 L 4245 3620 L 4443 3620 L 4642 3620 L 4586 3725 C 4424 4031 4207 4270 3915 4463 C 3740 4578 3468 4693 3270 4735 C 3179 4755 2999 4780 2948 4780 L 2910 4780 L 2910 4605 z" stroke-linecap="round" />
</g>
		<g transform="matrix(0.04 0 0 -0.04 0 0)" id="2kyaCzQcLRWlyLQDdpL8E"  >
<linearGradient id="SVGID_16" gradientUnits="userSpaceOnUse" gradientTransform="matrix(1 0 0 1 412.78 433.5)"  x1="0" y1="2382.7470771568665" x2="4777.723849730859" y2="2382.7470771568665">
<stop offset="0%" style="stop-color:#000000;stop-opacity: 1"/>
<stop offset="100%" style="stop-color:#055183;stop-opacity: 1"/>
</linearGradient>
<path style="stroke: none; stroke-width: 1; stroke-dasharray: none; stroke-linecap: butt; stroke-dashoffset: 0; stroke-linejoin: miter; stroke-miterlimit: 4; fill: url(#SVGID_16); fill-rule: nonzero; opacity: 1;" vector-effect="non-scaling-stroke"  transform=" translate(-2801.64, -2816.25)" d="M 2565 5193 C 2248 5154 1985 5078 1738 4954 C 1134 4651 692 4119 504 3467 C 266 2641 502 1738 1115 1125 C 1237 1002 1331 926 1476 829 C 1573 764 1787 649 1890 606 C 2045 542 2247 485 2438 453 C 2593 427 3030 427 3180 453 C 3690 543 4104 751 4464 1100 C 4793 1419 5036 1849 5135 2286 C 5209 2616 5209 3006 5135 3339 C 5004 3930 4637 4462 4124 4805 C 4003 4886 3751 5013 3614 5062 C 3466 5115 3244 5168 3095 5185 C 2978 5199 2648 5204 2565 5193 z M 3160 5015 C 3557 4948 3926 4778 4247 4514 C 4556 4259 4812 3870 4934 3467 C 5044 3106 5060 2704 4980 2335 C 4926 2088 4808 1807 4668 1595 C 4628 1534 4590 1478 4583 1470 C 4473 1331 4340 1192 4235 1106 C 4003 917 3771 789 3500 700 C 3261 622 3063 590 2803 590 C 2060 590 1378 950 958 1565 C 618 2063 496 2698 626 3290 C 773 3957 1216 4520 1824 4815 C 2064 4932 2259 4988 2585 5034 C 2657 5044 3069 5031 3160 5015 z" stroke-linecap="round" />
</g>
</g>
</g>
</svg>